<svg xmlns="http://www.w3.org/2000/svg" viewBox="0 0 640 420" role="img" aria-labelledby="title desc">
  <title id="title">Recette guidee</title>
  <desc id="desc">Illustration simple d'une assiette et d'ustensiles de cuisine</desc>
  <defs>
    <linearGradient id="bg" x1="0" x2="1" y1="0" y2="1">
      <stop offset="0" stop-color="#fff7ed"/>
      <stop offset="1" stop-color="#ecfeff"/>
    </linearGradient>
    <linearGradient id="plate" x1="0" x2="1">
      <stop offset="0" stop-color="#ffffff"/>
      <stop offset="1" stop-color="#f1f5f9"/>
    </linearGradient>
  </defs>
  <rect width="640" height="420" rx="32" fill="url(#bg)"/>
  <circle cx="320" cy="222" r="118" fill="url(#plate)" stroke="#cbd5e1" stroke-width="10"/>
  <circle cx="320" cy="222" r="72" fill="#fff" stroke="#e2e8f0" stroke-width="5"/>
  <path d="M253 216c38-54 92-56 134-5-29 35-92 38-134 5Z" fill="#22c55e" opacity=".88"/>
  <path d="M286 184c18-18 53-19 74 1" fill="none" stroke="#15803d" stroke-width="10" stroke-linecap="round"/>
  <circle cx="292" cy="234" r="14" fill="#f97316"/>
  <circle cx="354" cy="238" r="12" fill="#ef4444"/>
  <path d="M132 106v205" stroke="#64748b" stroke-width="12" stroke-linecap="round"/>
  <path d="M112 106v82M132 106v82M152 106v82" stroke="#64748b" stroke-width="10" stroke-linecap="round"/>
  <path d="M508 104c34 46 31 98-9 132v75" fill="none" stroke="#64748b" stroke-width="14" stroke-linecap="round"/>
  <text x="320" y="364" text-anchor="middle" font-family="Arial, sans-serif" font-size="28" font-weight="700" fill="#0f172a">Recette guidee pas a pas</text>
</svg>
